<?xml version="1.0" encoding="iso-8859-1"?>
<!-- Generator: Adobe Illustrator 19.1.0, SVG Export Plug-In . SVG Version: 6.00 Build 0)  -->
<svg version="1.1" id="Capa_1" xmlns="http://www.w3.org/2000/svg" xmlns:xlink="http://www.w3.org/1999/xlink" x="0px" y="0px"
	 viewBox="0 0 477.7 477.7" style="enable-background:new 0 0 477.7 477.7;" xml:space="preserve">
<g>
	<g>
		<path d="M474.1,192.6l-121-121c-2.3-2.3-5.3-3.5-8.5-3.5H36.3C16.3,68.1,0,84.4,0,104.4v268.9c0,20,16.3,36.3,36.3,36.3h405.1
			c20,0,36.3-16.3,36.3-36.3V201.1C477.6,197.9,476.4,194.9,474.1,192.6z M356.7,109.1l80,80h-62.3c-9.7,0-17.7-7.9-17.7-17.7V109.1
			z M453.6,373.4c0,6.8-5.5,12.3-12.3,12.3h-405c-6.8,0-12.3-5.5-12.3-12.3v-269c0-6.8,5.5-12.3,12.3-12.3h296.4v79.3
			c0,23,18.7,41.7,41.7,41.7h79.3v160.3H453.6z"/>
		<path d="M238.8,249.6c-6.6,0-12,5.4-12,12c0,6.6,5.4,12,12,12s12-5.4,12-12C250.8,255,245.4,249.6,238.8,249.6z"/>
		<path d="M238.8,204.2c-6.6,0-12,5.4-12,12s5.4,12,12,12s12-5.4,12-12S245.4,204.2,238.8,204.2z"/>
		<path d="M238.8,113.3c-6.6,0-12,5.4-12,12s5.4,12,12,12s12-5.4,12-12C250.8,118.7,245.4,113.3,238.8,113.3z"/>
		<path d="M238.8,158.8c-6.6,0-12,5.4-12,12s5.4,12,12,12s12-5.4,12-12C250.8,164.1,245.4,158.8,238.8,158.8z"/>
		<path d="M238.8,295c-6.6,0-12,5.4-12,12s5.4,12,12,12s12-5.4,12-12S245.4,295,238.8,295z"/>
		<circle cx="238.8" cy="352.5" r="12"/>
	</g>
</g>
<g>
</g>
<g>
</g>
<g>
</g>
<g>
</g>
<g>
</g>
<g>
</g>
<g>
</g>
<g>
</g>
<g>
</g>
<g>
</g>
<g>
</g>
<g>
</g>
<g>
</g>
<g>
</g>
<g>
</g>
</svg>
